<?xml version="1.0" encoding="utf-8"?>
<!-- Generator: Adobe Illustrator 21.0.2, SVG Export Plug-In . SVG Version: 6.00 Build 0)  -->
<svg version="1.1" id="Layer_1" xmlns="http://www.w3.org/2000/svg" xmlns:xlink="http://www.w3.org/1999/xlink" x="0px" y="0px"
	 viewBox="0 0 571 145" style="enable-background:new 0 0 571 145;" xml:space="preserve">
<style type="text/css">
	.st0{fill:#526772;}
</style>
<g>
	<polygon class="st0" points="144,141.6 74.9,72.5 144,3.5 144.3,3.1 144,2.7 142,0.8 141.6,0.4 141.3,0.8 72.2,69.8 3.1,0.8 
		2.8,0.4 2.4,0.8 0.4,2.7 0.1,3.1 0.4,3.5 69.5,72.5 0.4,141.6 0.1,142 0.4,142.4 2.4,144.3 2.8,144.7 3.1,144.3 72.2,75.2 
		141.3,144.3 141.6,144.7 142,144.3 144,142.4 144.3,142 	"/>
	<g>
		<g>
			<path class="st0" d="M65.5,144.7c-2,0-5.7-9.3-5.3-15.8s2-8.9,5.3-8.9c3.2,0,6.1,1.6,6.1,8.9S67.5,144.7,65.5,144.7z"/>
			<path class="st0" d="M56.6,118.8c-1.2-0.8,0-6.5,2.4-8.9s4-3.6,6.1-2c2,1.6,1.1,4.6-0.8,6.9C62.2,117.2,57.8,119.6,56.6,118.8z"
				/>
		</g>
		<g>
			<path class="st0" d="M79.9,144.7c2,0,5.7-9.3,5.3-15.8s-2-8.9-5.3-8.9c-3.2,0-6.1,1.6-6.1,8.9S77.9,144.7,79.9,144.7z"/>
			<path class="st0" d="M88.8,118.8c1.2-0.8,0-6.5-2.4-8.9s-4-3.6-6.1-2c-2,1.6-1.1,4.6,0.8,6.9C83.2,117.2,87.6,119.6,88.8,118.8z"
				/>
		</g>
	</g>
	<g>
		<path class="st0" d="M75.1,0.4c1.1-0.5,6.7,3,9.1,10.3s4.5,15.5,3.4,19.5c-1.1,4-3.5,7.8-7.4,7.7c-3.9-0.1-6.7-3.5-6.7-8.6
			s2.4-13.7,2.5-17.9C76,7.1,74.4,0.7,75.1,0.4z"/>
		<path class="st0" d="M69.1,0.4c-1.1-0.5-6.7,3-9.1,10.3s-4.5,15.5-3.4,19.5c1.1,4,3.5,7.8,7.4,7.7c3.9-0.1,6.7-3.5,6.7-8.6
			s-2.4-13.7-2.5-17.9S69.7,0.7,69.1,0.4z"/>
	</g>
	<g>
		<path class="st0" d="M26.3,84.5c0.3,1.3-0.7,2.2-3,2.8c-3,0.9-4.8-0.4-4.8-0.4s-1.5,0.2-2.4,0c-0.9-0.2-2.2-1.1-2-1.5
			c0.2-0.4,3,0.2,4.6-0.4c0,0,1.5-1.2,3.7-1.7C24.1,82.8,26.1,83.4,26.3,84.5z"/>
		<path class="st0" d="M15.2,78.6c0,1.3-1.5,2.8-5.6,2.8c-5,0-5-2.4-5-2.4s-1,0.1-1.5,0c-0.9-0.2-1.5-0.7-1.5-0.9s0.2-0.4,2.2-0.7
			c1.5-0.2,2.8-0.2,2.8-0.2s3.5-1.5,5.6-1.3C14.4,76.3,15.2,77.6,15.2,78.6z"/>
		<path class="st0" d="M13.7,71c0,1.5-1.5,2.6-5.4,2c-3.9-0.7-4.1-2.2-4.1-2.2s-1.3,0-2.2,0S0.2,71,0,70.6c-0.2-0.4,0.9-1.1,1.5-1.3
			s2.2,0,2.2,0s0.7-2.4,4.3-2.2C11.7,67.4,13.7,69.5,13.7,71z"/>
		<path class="st0" d="M22.6,65c-0.9,0.9-3,2-6.1-0.9S15,59.5,15,59.5s-0.9-0.4-1.5-0.7c-0.7-0.2-1.7-0.2-1.7-0.7s1.5-0.9,2.6-0.7
			c1.1,0.2,3,0.9,3,0.9s3.3,0,4.6,2C23.3,62.4,23.5,64.1,22.6,65z"/>
		<path class="st0" d="M32.1,62.4c-0.7,0.7-2,1.3-3.9-0.7c-1.5-1.5-1.3-2.4-1.3-2.4s-0.9-0.4-1.5-0.7c-0.7-0.2-1.5-0.9-1.5-1.1
			c0-0.2,1.5-0.4,2.2-0.2c0.5,0.2,1.3,0.7,1.3,0.7s3-0.4,4.3,1.3C32.8,60.6,32.8,61.7,32.1,62.4z"/>
		<path class="st0" d="M34.3,72.8c0,1.5,3.3,3.5,3.3,5.4s-2.2,2.6-4.6,1.5s-5.9-2.8-6.7-4.3c-0.9-1.5,0.4-5,1.1-5.9
			c0.7-0.9,7.2-6.1,8.9-3.5C38,68.7,34.3,70.8,34.3,72.8z"/>
	</g>
	<g>
		<g>
			<path class="st0" d="M175.2,32.4h11.9v49h-11.9V61.2h-18.9v20.3h-11.9v-49h11.9v19.6h18.9V32.4z"/>
			<path class="st0" d="M207.8,74.9c-4.9-4.8-7.3-10.8-7.3-18s2.4-13.3,7.3-18c4.9-4.7,10.8-7.1,17.9-7.1c7.1,0,13,2.4,17.8,7.1
				c4.8,4.7,7.2,10.7,7.2,18s-2.4,13.3-7.3,18c-4.8,4.8-10.8,7.1-17.8,7.1C218.6,82,212.6,79.6,207.8,74.9z M235,67.1
				c2.4-2.6,3.5-6,3.5-10.3c0-4.3-1.2-7.7-3.5-10.3c-2.4-2.6-5.5-3.8-9.4-3.8c-3.9,0-7.1,1.3-9.4,3.8c-2.4,2.6-3.5,6-3.5,10.3
				c0,4.3,1.2,7.7,3.5,10.3c2.4,2.6,5.5,3.8,9.4,3.8C229.5,70.9,232.7,69.7,235,67.1z"/>
			<path class="st0" d="M268.6,74.9c-4.9-4.8-7.3-10.8-7.3-18s2.4-13.3,7.3-18c4.9-4.7,10.8-7.1,17.9-7.1c7.1,0,13,2.4,17.8,7.1
				c4.8,4.7,7.2,10.7,7.2,18s-2.4,13.3-7.3,18S293.5,82,286.5,82C279.5,82,273.5,79.6,268.6,74.9z M295.9,67.1
				c2.4-2.6,3.5-6,3.5-10.3c0-4.3-1.2-7.7-3.5-10.3c-2.4-2.6-5.5-3.8-9.4-3.8c-3.9,0-7.1,1.3-9.4,3.8c-2.4,2.6-3.5,6-3.5,10.3
				c0,4.3,1.2,7.7,3.5,10.3c2.4,2.6,5.5,3.8,9.4,3.8C290.4,70.9,293.5,69.7,295.9,67.1z"/>
			<path class="st0" d="M325,81.5v-49h31.9v9.1h-20v10.6h15v9.1h-15v20.3H325z"/>
			<path class="st0" d="M369.1,81.5v-49H381v49H369.1z"/>
			<path class="st0" d="M429.1,32.3h11.9v49.2h-11.9l-20-31v31h-11.9V32.3h11.9l20,31V32.3z"/>
			<path class="st0" d="M455.2,22.8h9.2c0.9,2.8,1.4,5.7,1.4,8.7c0,3-0.8,5.4-2.5,7.3c-1.7,1.9-4.1,2.9-7.3,2.9v-4.5
				c2.4,0,3.6-1.5,3.6-4.6v-1.1h-4.4V22.8z"/>
			<path class="st0" d="M508.7,81.5v-49h11.9v49H508.7z"/>
			<path class="st0" d="M532.3,41.5v-9.1H571v9.1h-13.4v40h-11.9v-40H532.3z"/>
		</g>
		<g>
			<path class="st0" d="M158,96.2c1.4,1.3,2.1,2.9,2.1,4.8c0,1.9-0.7,3.5-2,4.8c-1.3,1.3-3.3,2-6,2H148v9.2h-3.7V94.3h7.8
				C154.7,94.3,156.6,95,158,96.2z M148,104.9h4.1c1.4,0,2.5-0.3,3.2-1c0.7-0.7,1-1.6,1-2.8s-0.3-2.1-1-2.8c-0.7-0.7-1.7-1-3.2-1
				H148V104.9z"/>
			<path class="st0" d="M178.2,94.3v2.9h-8.8v6.9h7.8v2.9h-7.8v7.1h8.8v2.9h-12.5V94.3H178.2z"/>
			<path class="st0" d="M183.8,97.2v-2.9h15.8v2.9h-6V117h-3.7V97.2H183.8z"/>
			<path class="st0" d="M245.1,94.3h4l-6.7,22.6h-4.2l-4.8-17.1l-5,17.1l-4.2,0l-6.4-22.7h3.9l4.7,18.4l5.1-18.4h4.2l4.7,18.3
				L245.1,94.3z"/>
			<path class="st0" d="M268.1,117l-1.6-4.6H257l-1.6,4.6h-3.9l8.1-22.7h4.3L272,117H268.1z M258,109.5h7.5l-3.7-10.7L258,109.5z"/>
			<path class="st0" d="M277.6,94.3h3.7v19.8h7.7v2.8h-11.4V94.3z"/>
			<path class="st0" d="M298.1,117h-3.7V94.3h3.7v10.3l8.8-10.3h4.9l-10.2,11.4l10.2,11.3h-4.9l-8.8-10.1V117z"/>
			<path class="st0" d="M317.2,117V94.3h3.7V117H317.2z"/>
			<path class="st0" d="M343.5,94.3h3.7V117h-3.7l-11.2-16.9V117h-3.7V94.3h3.7l11.2,16.9V94.3z"/>
			<path class="st0" d="M365.1,117.2c-3.1,0-5.8-1.1-8-3.3c-2.2-2.2-3.4-4.9-3.4-8.3s1.1-6.1,3.4-8.3c2.2-2.2,5-3.3,8.2-3.3
				c2.4,0,4.6,0.6,6.4,1.8c1.9,1.2,3.2,2.9,4.1,5h-4.5c-1.2-2.3-3.2-3.4-6.1-3.4c-2.3,0-4.1,0.7-5.6,2.2c-1.4,1.5-2.2,3.5-2.2,5.9
				c0,2.5,0.7,4.4,2.2,5.9c1.4,1.5,3.2,2.2,5.4,2.2c2.2,0,3.9-0.6,5.1-1.7c1.3-1.1,2-2.7,2.3-4.6H364v-2.9h12.5v2.9
				c-0.3,2.7-1.6,5-3.6,6.9C370.7,116.2,368.1,117.2,365.1,117.2z"/>
			<path class="st0" d="M403.4,97.1c-1.1,0-2,0.3-2.7,0.8c-0.7,0.6-1,1.4-1,2.5c0,1.1,0.4,1.9,1.2,2.5c0.8,0.6,1.8,1,3,1.2
				c1.2,0.3,2.3,0.6,3.5,0.9c1.2,0.3,2.2,1,3,1.9c0.8,0.9,1.2,2.2,1.2,3.9c0,1.7-0.7,3.2-2.1,4.5c-1.4,1.3-3.3,2-5.7,2
				c-2.4,0-4.3-0.6-5.8-1.7c-1.5-1.1-2.2-2.6-2.2-4.6h4c0.1,1,0.5,1.8,1.1,2.4c0.7,0.6,1.6,0.9,2.9,0.9c1.3,0,2.3-0.3,3-1
				c0.7-0.7,1.1-1.4,1.1-2.3c0-0.9-0.2-1.6-0.7-2.1c-0.4-0.5-1-0.9-1.7-1.1c-0.7-0.2-1.5-0.5-2.3-0.7c-0.8-0.2-1.7-0.4-2.6-0.7
				c-0.9-0.3-1.6-0.6-2.3-1c-0.7-0.4-1.3-1-1.7-1.8c-0.4-0.8-0.7-1.8-0.7-2.9c0-2,0.7-3.6,2.1-4.8c1.4-1.2,3.3-1.8,5.5-1.8
				c2.3,0,4.1,0.5,5.4,1.6c1.4,1,2.1,2.6,2.3,4.5h-4.1c-0.1-0.9-0.5-1.6-1.1-2.2C405.4,97.4,404.6,97.1,403.4,97.1z"/>
			<path class="st0" d="M431.1,94.3v2.9h-8.8v6.9h7.8v2.9h-7.8v7.1h8.8v2.9h-12.5V94.3H431.1z"/>
			<path class="st0" d="M441.6,107.8v9.2h-3.7V94.3h7.8c2.6,0,4.5,0.6,5.9,1.9c1.4,1.3,2.1,2.9,2.1,4.8c0,1.5-0.5,2.9-1.4,4.1
				c-0.9,1.2-2.3,2-4.3,2.4l6,9.4h-4.5l-5.7-9.2H441.6z M441.6,97.2v7.7h4.1c1.4,0,2.5-0.3,3.2-1c0.7-0.7,1-1.6,1-2.8
				s-0.3-2.1-1-2.8c-0.7-0.7-1.7-1-3.2-1H441.6z"/>
			<path class="st0" d="M466.6,117l-8.5-22.6h4l6.7,18.8l6.7-18.8h3.9l-8.5,22.6H466.6z"/>
			<path class="st0" d="M484.8,117V94.3h3.7V117H484.8z"/>
			<path class="st0" d="M498.4,113.9c-2.2-2.2-3.4-4.9-3.4-8.3s1.1-6.1,3.4-8.3c2.2-2.2,5-3.3,8.2-3.3c2.4,0,4.6,0.6,6.4,1.8
				c1.9,1.2,3.2,2.9,4.1,5h-4.5c-1.2-2.3-3.2-3.4-6.1-3.4c-2.3,0-4.1,0.7-5.6,2.2c-1.4,1.5-2.2,3.5-2.2,5.9c0,2.5,0.7,4.4,2.2,5.9
				c1.4,1.5,3.3,2.2,5.6,2.2c2.8,0,4.8-1.1,6.1-3.4h4.5c-0.8,2.2-2.2,3.8-4.1,5c-1.9,1.2-4,1.8-6.4,1.8
				C503.4,117.2,500.6,116.1,498.4,113.9z"/>
			<path class="st0" d="M536.2,94.3v2.9h-8.8v6.9h7.8v2.9h-7.8v7.1h8.8v2.9h-12.5V94.3H536.2z"/>
			<path class="st0" d="M549.4,97.1c-1.1,0-2,0.3-2.7,0.8c-0.7,0.6-1,1.4-1,2.5c0,1.1,0.4,1.9,1.2,2.5c0.8,0.6,1.8,1,3,1.2
				c1.2,0.3,2.3,0.6,3.5,0.9c1.2,0.3,2.2,1,3,1.9c0.8,0.9,1.2,2.2,1.2,3.9c0,1.7-0.7,3.2-2.1,4.5c-1.4,1.3-3.3,2-5.7,2
				c-2.4,0-4.3-0.6-5.8-1.7c-1.5-1.1-2.2-2.6-2.2-4.6h4c0.1,1,0.5,1.8,1.1,2.4c0.7,0.6,1.6,0.9,2.9,0.9c1.3,0,2.3-0.3,3-1
				c0.7-0.7,1.1-1.4,1.1-2.3c0-0.9-0.2-1.6-0.7-2.1c-0.4-0.5-1-0.9-1.7-1.1c-0.7-0.2-1.5-0.5-2.3-0.7c-0.8-0.2-1.7-0.4-2.6-0.7
				c-0.9-0.3-1.6-0.6-2.3-1c-0.7-0.4-1.3-1-1.7-1.8c-0.4-0.8-0.7-1.8-0.7-2.9c0-2,0.7-3.6,2.1-4.8c1.4-1.2,3.3-1.8,5.5-1.8
				c2.3,0,4.1,0.5,5.4,1.6c1.4,1,2.1,2.6,2.3,4.5h-4.1c-0.1-0.9-0.5-1.6-1.1-2.2C551.3,97.4,550.5,97.1,549.4,97.1z"/>
		</g>
	</g>
</g>
</svg>
