<?xml version="1.0" encoding="utf-8"?>
<!-- Generator: Adobe Illustrator 21.0.2, SVG Export Plug-In . SVG Version: 6.00 Build 0)  -->
<svg version="1.1" id="Layer_1" xmlns="http://www.w3.org/2000/svg" xmlns:xlink="http://www.w3.org/1999/xlink" x="0px" y="0px"
	 viewBox="0 0 205 205" style="enable-background:new 0 0 205 205;" xml:space="preserve">
<style type="text/css">
	.st0{fill:#526772;}
</style>
<g>
	<g>
		<polygon class="st0" points="204.5,200.1 106.5,102.2 204.5,4.2 205,3.6 204.5,3.1 201.8,0.4 201.2,-0.2 200.7,0.4 102.7,98.3 
			4.7,0.4 4.2,-0.2 3.6,0.4 0.9,3.1 0.3,3.6 0.9,4.2 98.9,102.2 0.9,200.1 0.3,200.7 0.9,201.2 3.6,204 4.2,204.5 4.7,204 
			102.7,106 200.7,204 201.2,204.5 201.8,204 204.5,201.2 205,200.7 		"/>
		<g>
			<g>
				<path class="st0" d="M93.1,204.5c-2.9,0-8-13.2-7.5-22.4c0.6-9.2,2.9-12.6,7.5-12.6s8.6,2.3,8.6,12.6S96,204.5,93.1,204.5z"/>
				<path class="st0" d="M80.5,167.8c-1.7-1.1,0-9.2,3.4-12.6c3.4-3.4,5.7-5.2,8.6-2.9c2.9,2.3,1.5,6.6-1.1,9.7
					C88.5,165.5,82.2,169,80.5,167.8z"/>
			</g>
			<g>
				<path class="st0" d="M113.7,204.5c2.9,0,8-13.2,7.5-22.4c-0.6-9.2-2.9-12.6-7.5-12.6s-8.6,2.3-8.6,12.6S110.8,204.5,113.7,204.5
					z"/>
				<path class="st0" d="M126.3,167.8c1.7-1.1,0-9.2-3.4-12.6s-5.7-5.2-8.6-2.9c-2.9,2.3-1.5,6.6,1.1,9.7
					C118.2,165.5,124.6,169,126.3,167.8z"/>
			</g>
		</g>
		<g>
			<path class="st0" d="M106.7-0.2c1.5-0.7,9.5,4.3,12.9,14.6c3.4,10.3,6.4,22,4.8,27.7c-1.6,5.7-5,11.1-10.5,11s-9.5-4.9-9.5-12.2
				s3.3-19.5,3.5-25.5C108,9.4,105.8,0.2,106.7-0.2z"/>
			<path class="st0" d="M98.3-0.2c-1.5-0.7-9.5,4.3-12.9,14.6S79,36.3,80.6,42c1.6,5.7,5,11.1,10.5,11s9.5-4.9,9.5-12.2
				s-3.3-19.5-3.5-25.5C97,9.4,99.2,0.2,98.3-0.2z"/>
		</g>
		<g>
			<path class="st0" d="M37.6,119.1c0.4,1.9-1,3.1-4.3,4c-4.3,1.2-6.8-0.6-6.8-0.6s-2.2,0.3-3.4,0s-3.1-1.5-2.8-2.2s4.3,0.3,6.5-0.6
				c0,0,2.1-1.7,5.2-2.5C34.5,116.7,37.2,117.6,37.6,119.1z"/>
			<path class="st0" d="M21.9,110.8c0,1.8-2.2,4-8,4c-7.1,0-7.1-3.4-7.1-3.4s-1.5,0.2-2.2,0c-1.2-0.3-2.2-0.9-2.2-1.2
				s0.3-0.6,3.1-0.9c2.1-0.2,4-0.3,4-0.3s4.9-2.2,8-1.8S21.9,109.3,21.9,110.8z"/>
			<path class="st0" d="M19.7,100c0,2.2-2.1,3.7-7.7,2.8c-5.5-0.9-5.9-3.1-5.9-3.1s-1.8,0-3.1,0s-2.5,0.3-2.8-0.3
				c-0.3-0.6,1.2-1.5,2.2-1.8s3.1,0,3.1,0s0.9-3.4,6.2-3.1S19.7,97.9,19.7,100z"/>
			<path class="st0" d="M32.3,91.4c-1.2,1.2-4.3,2.8-8.6-1.2s-2.2-6.5-2.2-6.5s-1.2-0.6-2.2-0.9s-2.5-0.3-2.5-0.9s2.2-1.2,3.7-0.9
				c1.5,0.3,4.3,1.2,4.3,1.2s4.6,0,6.5,2.8C33.2,87.7,33.6,90.2,32.3,91.4z"/>
			<path class="st0" d="M45.9,87.7c-0.9,0.9-2.8,1.8-5.5-0.9c-2.2-2.2-1.8-3.4-1.8-3.4s-1.2-0.6-2.2-0.9c-0.9-0.3-2.2-1.2-2.2-1.5
				s2.2-0.6,3.1-0.3c0.7,0.2,1.8,0.9,1.8,0.9s4.2-0.5,6.2,1.8C46.8,85.3,46.8,86.8,45.9,87.7z"/>
			<path class="st0" d="M48.9,102.5c0,2.2,4.6,4.9,4.6,7.7s-3.1,3.7-6.5,2.2c-3.4-1.5-8.3-4-9.5-6.2c-1.2-2.2,0.6-7.1,1.5-8.3
				s10.2-8.6,12.6-4.9C54.2,96.7,48.9,99.7,48.9,102.5z"/>
		</g>
	</g>
	<g>
		<g>
			<path class="st0" d="M179.3,83.8h8.9v36.7h-8.9v-15.2h-14.1v15.2h-8.9V83.8h8.9v14.7h14.1V83.8z"/>
			<path class="st0" d="M196.1,120.4V83.8h8.9v36.7H196.1z"/>
		</g>
	</g>
</g>
</svg>
